<mxfile host="app.diagrams.net" modified="2024-02-08T20:52:27.259Z" agent="Mozilla/5.0 (Windows NT 10.0; Win64; x64; rv:122.0) Gecko/20100101 Firefox/122.0" etag="hOmoY2ZgdnaTRcXzX939" version="22.1.13" type="github">
  <diagram name="Page-1" id="BcD_z-Z6mWE41c7g1vkq">
    <mxGraphModel dx="3500" dy="1907" grid="0" gridSize="10" guides="1" tooltips="1" connect="1" arrows="1" fold="1" page="1" pageScale="1" pageWidth="2200" pageHeight="900" math="0" shadow="0">
      <root>
        <mxCell id="0" />
        <mxCell id="1" parent="0" />
        <mxCell id="kBLxzkw_PutFiRmcld1j-1" value="" style="image;aspect=fixed;html=1;points=[];align=center;fontSize=12;image=img/lib/azure2/databases/SQL_Database.svg;" parent="1" vertex="1">
          <mxGeometry x="129.5" y="270" width="81" height="108" as="geometry" />
        </mxCell>
        <mxCell id="7eZKOLOASio0npsbyuK4-6" style="edgeStyle=orthogonalEdgeStyle;rounded=0;orthogonalLoop=1;jettySize=auto;html=1;exitX=1;exitY=0.5;exitDx=0;exitDy=0;entryX=0;entryY=0.5;entryDx=0;entryDy=0;fillColor=#e3c800;strokeColor=#B09500;strokeWidth=4;" edge="1" parent="1" source="kBLxzkw_PutFiRmcld1j-3" target="kBLxzkw_PutFiRmcld1j-6">
          <mxGeometry relative="1" as="geometry" />
        </mxCell>
        <mxCell id="kBLxzkw_PutFiRmcld1j-3" value="&lt;h1&gt;Other Vendor Database&lt;br&gt;&lt;/h1&gt;&lt;p&gt;Database, which collects information from specific industrial soft&lt;br&gt;&lt;/p&gt;" style="text;html=1;strokeColor=default;fillColor=none;spacing=5;spacingTop=-20;whiteSpace=wrap;overflow=hidden;rounded=0;perimeterSpacing=2;dashed=1;" parent="1" vertex="1">
          <mxGeometry x="70" y="398" width="200" height="130" as="geometry" />
        </mxCell>
        <mxCell id="kBLxzkw_PutFiRmcld1j-4" value="" style="image;aspect=fixed;html=1;points=[];align=center;fontSize=12;image=img/lib/azure2/databases/Data_Factory.svg;" parent="1" vertex="1">
          <mxGeometry x="430" y="278" width="108" height="108" as="geometry" />
        </mxCell>
        <mxCell id="kBLxzkw_PutFiRmcld1j-5" value="" style="image;aspect=fixed;html=1;points=[];align=center;fontSize=12;image=img/lib/azure2/databases/SQL_Database.svg;" parent="1" vertex="1">
          <mxGeometry x="692.25" y="276" width="81" height="108" as="geometry" />
        </mxCell>
        <mxCell id="7eZKOLOASio0npsbyuK4-9" style="edgeStyle=orthogonalEdgeStyle;rounded=0;orthogonalLoop=1;jettySize=auto;html=1;exitX=1;exitY=0.5;exitDx=0;exitDy=0;entryX=0;entryY=0.5;entryDx=0;entryDy=0;fillColor=#e3c800;strokeColor=#B09500;strokeWidth=4;" edge="1" parent="1" source="kBLxzkw_PutFiRmcld1j-6" target="kBLxzkw_PutFiRmcld1j-7">
          <mxGeometry relative="1" as="geometry" />
        </mxCell>
        <mxCell id="kBLxzkw_PutFiRmcld1j-6" value="&lt;h1&gt;Operational Data Store (ODS) - Prod&lt;br&gt;&lt;/h1&gt;&lt;p&gt;Data Factory&lt;br&gt;&lt;/p&gt;" style="text;html=1;strokeColor=default;fillColor=none;spacing=5;spacingTop=-20;whiteSpace=wrap;overflow=hidden;rounded=0;perimeterSpacing=2;dashed=1;" parent="1" vertex="1">
          <mxGeometry x="380" y="398" width="200" height="130" as="geometry" />
        </mxCell>
        <mxCell id="7eZKOLOASio0npsbyuK4-12" style="edgeStyle=elbowEdgeStyle;rounded=0;orthogonalLoop=1;jettySize=auto;html=1;exitX=1;exitY=0.25;exitDx=0;exitDy=0;entryX=0;entryY=0.5;entryDx=0;entryDy=0;fillColor=#e3c800;strokeColor=#B09500;strokeWidth=3;" edge="1" parent="1" source="kBLxzkw_PutFiRmcld1j-7" target="kBLxzkw_PutFiRmcld1j-11">
          <mxGeometry relative="1" as="geometry" />
        </mxCell>
        <mxCell id="kBLxzkw_PutFiRmcld1j-7" value="&lt;h1&gt;ODS - Prod&lt;br&gt;&lt;/h1&gt;" style="text;html=1;strokeColor=default;fillColor=none;spacing=5;spacingTop=-20;whiteSpace=wrap;overflow=hidden;rounded=0;perimeterSpacing=2;dashed=1;" parent="1" vertex="1">
          <mxGeometry x="648" y="398" width="200" height="130" as="geometry" />
        </mxCell>
        <mxCell id="kBLxzkw_PutFiRmcld1j-9" value="" style="image;aspect=fixed;html=1;points=[];align=center;fontSize=12;image=img/lib/azure2/databases/Data_Factory.svg;" parent="1" vertex="1">
          <mxGeometry x="1056" y="109" width="98" height="98" as="geometry" />
        </mxCell>
        <mxCell id="kBLxzkw_PutFiRmcld1j-10" value="" style="image;aspect=fixed;html=1;points=[];align=center;fontSize=12;image=img/lib/azure2/databases/Data_Factory.svg;" parent="1" vertex="1">
          <mxGeometry x="1065" y="562" width="98" height="98" as="geometry" />
        </mxCell>
        <mxCell id="7eZKOLOASio0npsbyuK4-14" style="edgeStyle=orthogonalEdgeStyle;rounded=0;orthogonalLoop=1;jettySize=auto;html=1;exitX=1;exitY=0.5;exitDx=0;exitDy=0;fillColor=#e3c800;strokeColor=#B09500;strokeWidth=3;" edge="1" parent="1" source="kBLxzkw_PutFiRmcld1j-11">
          <mxGeometry relative="1" as="geometry">
            <mxPoint x="1352" y="266" as="targetPoint" />
          </mxGeometry>
        </mxCell>
        <mxCell id="kBLxzkw_PutFiRmcld1j-11" value="&lt;h1&gt;Pre-Prod&lt;br&gt;&lt;/h1&gt;&lt;p&gt;Azure Data Factory&lt;br&gt;&lt;/p&gt;" style="text;html=1;strokeColor=default;fillColor=none;spacing=5;spacingTop=-20;whiteSpace=wrap;overflow=hidden;rounded=0;perimeterSpacing=2;dashed=1;" parent="1" vertex="1">
          <mxGeometry x="1011" y="226" width="200" height="80" as="geometry" />
        </mxCell>
        <mxCell id="7eZKOLOASio0npsbyuK4-15" style="edgeStyle=orthogonalEdgeStyle;rounded=0;orthogonalLoop=1;jettySize=auto;html=1;exitX=1;exitY=0.5;exitDx=0;exitDy=0;fillColor=#e3c800;strokeColor=#B09500;strokeWidth=3;" edge="1" parent="1" source="kBLxzkw_PutFiRmcld1j-13">
          <mxGeometry relative="1" as="geometry">
            <mxPoint x="1348" y="716.4000000000001" as="targetPoint" />
          </mxGeometry>
        </mxCell>
        <mxCell id="kBLxzkw_PutFiRmcld1j-13" value="&lt;h1&gt;Prod&lt;br&gt;&lt;/h1&gt;&lt;p&gt;Azure Data Factory&lt;br&gt;&lt;/p&gt;" style="text;html=1;strokeColor=default;fillColor=none;spacing=5;spacingTop=-20;whiteSpace=wrap;overflow=hidden;rounded=0;perimeterSpacing=2;dashed=1;" parent="1" vertex="1">
          <mxGeometry x="1011" y="676" width="200" height="80" as="geometry" />
        </mxCell>
        <mxCell id="kBLxzkw_PutFiRmcld1j-14" value="" style="image;aspect=fixed;html=1;points=[];align=center;fontSize=12;image=img/lib/azure2/databases/SQL_Database.svg;" parent="1" vertex="1">
          <mxGeometry x="1356" y="208" width="73.5" height="98" as="geometry" />
        </mxCell>
        <mxCell id="kBLxzkw_PutFiRmcld1j-15" value="" style="image;aspect=fixed;html=1;points=[];align=center;fontSize=12;image=img/lib/azure2/databases/SQL_Database.svg;" parent="1" vertex="1">
          <mxGeometry x="1348" y="662" width="73.5" height="98" as="geometry" />
        </mxCell>
        <mxCell id="kBLxzkw_PutFiRmcld1j-16" value="" style="image;aspect=fixed;html=1;points=[];align=center;fontSize=12;image=img/lib/azure2/storage/Storage_Explorer.svg;" parent="1" vertex="1">
          <mxGeometry x="1609.3" y="79" width="58.4" height="68" as="geometry" />
        </mxCell>
        <mxCell id="kBLxzkw_PutFiRmcld1j-17" value="" style="image;aspect=fixed;html=1;points=[];align=center;fontSize=12;image=img/lib/azure2/storage/Storage_Explorer.svg;" parent="1" vertex="1">
          <mxGeometry x="1606.3" y="235" width="58.4" height="68" as="geometry" />
        </mxCell>
        <mxCell id="kBLxzkw_PutFiRmcld1j-21" value="" style="image;aspect=fixed;html=1;points=[];align=center;fontSize=12;image=img/lib/azure2/storage/Storage_Explorer.svg;" parent="1" vertex="1">
          <mxGeometry x="1603.3" y="572" width="58.4" height="68" as="geometry" />
        </mxCell>
        <mxCell id="kBLxzkw_PutFiRmcld1j-22" value="" style="image;aspect=fixed;html=1;points=[];align=center;fontSize=12;image=img/lib/azure2/storage/Storage_Explorer.svg;" parent="1" vertex="1">
          <mxGeometry x="1603.3" y="719" width="58.4" height="68" as="geometry" />
        </mxCell>
        <mxCell id="7eZKOLOASio0npsbyuK4-1" value="&lt;h1&gt;Tabular Model 1&lt;br&gt;&lt;/h1&gt;" style="text;html=1;strokeColor=default;fillColor=none;spacing=5;spacingTop=-20;whiteSpace=wrap;overflow=hidden;rounded=0;perimeterSpacing=2;dashed=1;" vertex="1" parent="1">
          <mxGeometry x="1538.5" y="166" width="200" height="50" as="geometry" />
        </mxCell>
        <mxCell id="7eZKOLOASio0npsbyuK4-2" value="&lt;h1&gt;Tabular Model 2&lt;br&gt;&lt;/h1&gt;" style="text;html=1;strokeColor=default;fillColor=none;spacing=5;spacingTop=-20;whiteSpace=wrap;overflow=hidden;rounded=0;perimeterSpacing=2;dashed=1;" vertex="1" parent="1">
          <mxGeometry x="1535.5" y="322" width="200" height="50" as="geometry" />
        </mxCell>
        <mxCell id="7eZKOLOASio0npsbyuK4-3" value="&lt;h1&gt;Tabular Model 1&lt;br&gt;&lt;/h1&gt;" style="text;html=1;strokeColor=default;fillColor=none;spacing=5;spacingTop=-20;whiteSpace=wrap;overflow=hidden;rounded=0;perimeterSpacing=2;dashed=1;" vertex="1" parent="1">
          <mxGeometry x="1537" y="650" width="200" height="50" as="geometry" />
        </mxCell>
        <mxCell id="7eZKOLOASio0npsbyuK4-4" value="&lt;h1&gt;Tabular Model 2&lt;br&gt;&lt;/h1&gt;" style="text;html=1;strokeColor=default;fillColor=none;spacing=5;spacingTop=-20;whiteSpace=wrap;overflow=hidden;rounded=0;perimeterSpacing=2;dashed=1;" vertex="1" parent="1">
          <mxGeometry x="1534" y="806" width="200" height="50" as="geometry" />
        </mxCell>
        <mxCell id="7eZKOLOASio0npsbyuK4-13" style="edgeStyle=orthogonalEdgeStyle;rounded=0;orthogonalLoop=1;jettySize=auto;html=1;exitX=1;exitY=0.75;exitDx=0;exitDy=0;entryX=0.007;entryY=0.427;entryDx=0;entryDy=0;entryPerimeter=0;fillColor=#e3c800;strokeColor=#B09500;strokeWidth=3;" edge="1" parent="1" source="kBLxzkw_PutFiRmcld1j-7" target="kBLxzkw_PutFiRmcld1j-13">
          <mxGeometry relative="1" as="geometry" />
        </mxCell>
      </root>
    </mxGraphModel>
  </diagram>
</mxfile>
